<svg xmlns="http://www.w3.org/2000/svg" width="99" height="99" viewBox="0 0 1000 1000">
	<path d="M895.985,0h-791c-58,0-105,47-105,105v789c0,59,47,106,105,106h790c57,0,105-47,105-105V105 C1000.985,47,953.985,0,895.985,0z"/>
	<g fill="#FFFFFF">
		<path d="M589.466,667.699c-25.125,3.568-64.639,2.963-120.808,48.383 c-48.178,38.992-67.178,55.795-106.351,66.285c-37.317,10.023-91.633,7.91-107.078-19.219 c-15.212-26.775-7.674-69.693,13.647-90.342c43.44-42.016,88.681-63.158,238.638-27.791 C558.823,657.1,576.23,661.875,589.466,667.699"/>
		<path d="M674.04,525.184c-9.499,5.932-19.825,12.932-30.23,20.291 c-31.605-136.267-12.109-249.44-13.099-278.067c-1.539-42.753-25.454-47.312-49.152-54.15 c-25.979-7.51-142.653,4.861-223.19,35.822c-164.484,63.239-162.52,137.16-159.403,155.832 c4.311,21.625,12.095,29.532,35.272,55.537c53.504,60.065,103.013,139.095,103.013,139.095 c16.875-5.162,33.885-8.348,50.648-10.049c-17.999-43.908-58.323-112.488-77.723-139.729 c-31.961-44.938-31.605-40.558-37.755-53.01c-3.103-6.125-2.925-11.671,8.264-21.199 c9.722-8.266,29.602-17.463,39.583-19.674c9.116-2.059,18.961,3.653,25.811,17.849 c18.317,37.729,60.261,118.458,94.873,214.827c51.405,3.02,95.494,16.256,118.393,22.738 c-0.028,0.055-0.247,0.219-0.193,0.219c52.999,13.455,73.813,17.41,129.225,19.059 c49.756,1.453,106.764-19.992,112.914-77.107C806.066,509.422,779.322,459.486,674.04,525.184"/>
	</g>
	<g>
		<path d="M715.922,736.171H990.11c5.418,0,9.891,4.393,9.891,9.876v98.739c0,5.451-4.473,9.891-9.891,9.891H715.922 c-5.484,0-9.891-4.439-9.891-9.891v-98.739C706.031,740.563,710.438,736.171,715.922,736.171z"/>
		<g fill="#FFFFFF">
			<path d="M750.303,763.092H783.4c8.154,0,14.65,2.365,19.537,7.125c4.439,4.31,6.645,9.487,6.645,15.6 c0,6.144-2.205,11.288-6.514,15.502c-4.891,4.761-11.451,7.126-19.668,7.126h-12.144v19.167h-20.92v-64.52H750.303z M771.256,778.819v13.926h8.669c2.43,0,4.326-0.69,5.709-2.074c1.383-1.382,2.106-3.021,2.106-4.854 c0-1.979-0.659-3.619-1.977-4.984c-1.32-1.352-3.282-2.013-5.839-2.013H771.256z"/>
			<path d="M879.195,827.611h-22.624l-10.454-20.969h-7.026v20.969h-20.812v-64.52h33.034 c8.635,0,15.47,2.204,20.487,6.626c4.469,3.956,6.706,8.717,6.706,14.33c0,4.132-1.354,8.007-4.006,11.594 c-2.671,3.57-6.336,6.063-11.001,7.543L879.195,827.611z M839.09,778.819v12.157h8.813c2.428,0,4.324-0.625,5.707-1.849 c1.386-1.204,2.106-2.619,2.106-4.262c0-1.542-0.721-2.958-2.106-4.212c-1.383-1.238-3.279-1.864-5.707-1.864h-8.813V778.819z"/>
			<path d="M955.729,794.518c0,12.059-3.604,21.113-10.855,27.161c-6.143,5.146-14.087,7.719-23.914,7.719 c-9.953,0-17.963-2.573-24.011-7.623c-7.219-6.078-10.901-15.132-10.901-27.257c0-11.387,3.617-19.991,10.807-25.716 c6.143-4.921,14.152-7.381,24.075-7.381c9.921,0,17.864,2.428,23.895,7.286C952.125,774.526,955.729,783.131,955.729,794.518z M920.959,813.67c4.101,0,7.19-1.849,9.297-5.629c1.896-3.346,2.846-7.879,2.846-13.523c0-4.891-0.918-8.831-2.784-11.949 c-2.168-3.65-5.258-5.453-9.358-5.453c-4.068,0-7.188,1.803-9.39,5.453c-1.914,3.15-2.864,7.156-2.864,11.949 c0,5.739,0.918,10.243,2.767,13.523C913.579,811.821,916.73,813.67,920.959,813.67z"/>
		</g>
	</g>
</svg>
